STARTFONT 2.1
FONT -DEC-Gam-Bold-R-Normal--12-120-75-75-M-70-ISO8859-8
SIZE 12 75 75
FONTBOUNDINGBOX 8 13 0 -3

STARTPROPERTIES 26
FONTNAME_REGISTRY ""
FAMILY_NAME "Gam"
FOUNDRY "DEC"
WEIGHT_NAME "Bold"
SLANT "R"
SETWIDTH_NAME "Normal"
ADD_STYLE_NAME ""
PIXEL_SIZE 12
RESOLUTION_X 75
RESOLUTION_Y 75
SPACING "M"
AVERAGE_WIDTH 70
CHARSET_REGISTRY "ISO8859"
CHARSET_ENCODING "8"
CHARSET_COLLECTIONS "ASCII ISO8859-8 "
FULL_NAME "Gam Bold"
COPYRIGHT "Digital Israel"
CAP_HEIGHT 8
X_HEIGHT 6
_DEC_DEVICE_FONTNAMES "PS=Gam-Bold-ISOLatinHebrew"
QUAD_WIDTH 7
POINT_SIZE 120
WEIGHT 10
DEFAULT_CHAR 0
FONT_DESCENT 3
FONT_ASCENT 10
ENDPROPERTIES

CHARS 152

STARTCHAR space
ENCODING 32
SWIDTH 560 0
DWIDTH 7 0
BBX 1 1 0 0
BITMAP
00
ENDCHAR

STARTCHAR exclam
ENCODING 33
SWIDTH 560 0
DWIDTH 7 0
BBX 2 9 3 0
BITMAP
C0
C0
C0
C0
C0
C0
00
C0
C0
ENDCHAR

STARTCHAR quotedbl
ENCODING 34
SWIDTH 560 0
DWIDTH 7 0
BBX 3 3 2 5
BITMAP
A0
A0
A0
ENDCHAR

STARTCHAR numbersign
ENCODING 35
SWIDTH 560 0
DWIDTH 7 0
BBX 5 8 1 0
BITMAP
50
50
F8
50
50
F8
50
50
ENDCHAR

STARTCHAR dollar
ENCODING 36
SWIDTH 560 0
DWIDTH 7 0
BBX 6 12 1 -2
BITMAP
30
30
7C
CC
E0
78
1C
8C
CC
F8
30
30
ENDCHAR

STARTCHAR percent
ENCODING 37
SWIDTH 560 0
DWIDTH 7 0
BBX 7 8 0 0
BITMAP
60
D0
64
18
30
4C
1A
0C
ENDCHAR

STARTCHAR ampersand
ENCODING 38
SWIDTH 560 0
DWIDTH 7 0
BBX 7 8 0 0
BITMAP
38
6C
60
32
7E
CC
CE
7A
ENDCHAR

STARTCHAR quoteright
ENCODING 39
SWIDTH 560 0
DWIDTH 7 0
BBX 2 3 2 5
BITMAP
40
C0
80
ENDCHAR

STARTCHAR parenleft
ENCODING 40
SWIDTH 560 0
DWIDTH 7 0
BBX 4 11 2 -2
BITMAP
10
60
60
C0
C0
C0
C0
C0
60
60
10
ENDCHAR

STARTCHAR parenright
ENCODING 41
SWIDTH 560 0
DWIDTH 7 0
BBX 4 11 2 -2
BITMAP
80
60
60
30
30
30
30
30
60
60
80
ENDCHAR

STARTCHAR asterisk
ENCODING 42
SWIDTH 560 0
DWIDTH 7 0
BBX 5 5 2 4
BITMAP
20
20
F8
70
D8
ENDCHAR

STARTCHAR plus
ENCODING 43
SWIDTH 560 0
DWIDTH 7 0
BBX 6 5 1 1
BITMAP
30
30
FC
30
30
ENDCHAR

STARTCHAR comma
ENCODING 44
SWIDTH 560 0
DWIDTH 7 0
BBX 3 3 2 -1
BITMAP
60
60
C0
ENDCHAR

STARTCHAR minus
ENCODING 45
SWIDTH 560 0
DWIDTH 7 0
BBX 6 1 1 3
BITMAP
FC
ENDCHAR

STARTCHAR period
ENCODING 46
SWIDTH 560 0
DWIDTH 7 0
BBX 2 2 3 0
BITMAP
C0
C0
ENDCHAR

STARTCHAR slash
ENCODING 47
SWIDTH 560 0
DWIDTH 7 0
BBX 5 10 1 -2
BITMAP
08
18
18
30
30
60
60
C0
C0
80
ENDCHAR

STARTCHAR zero
ENCODING 48
SWIDTH 560 0
DWIDTH 7 0
BBX 6 9 1 0
BITMAP
78
CC
CC
CC
CC
CC
CC
CC
78
ENDCHAR

STARTCHAR one
ENCODING 49
SWIDTH 560 0
DWIDTH 7 0
BBX 6 9 1 0
BITMAP
30
F0
30
30
30
30
30
30
FC
ENDCHAR

STARTCHAR two
ENCODING 50
SWIDTH 560 0
DWIDTH 7 0
BBX 6 9 1 0
BITMAP
78
CC
CC
CC
18
30
60
CC
FC
ENDCHAR

STARTCHAR three
ENCODING 51
SWIDTH 560 0
DWIDTH 7 0
BBX 6 9 1 0
BITMAP
78
CC
0C
0C
38
0C
0C
CC
78
ENDCHAR

STARTCHAR four
ENCODING 52
SWIDTH 560 0
DWIDTH 7 0
BBX 6 9 1 0
BITMAP
08
18
38
58
58
98
FC
18
3C
ENDCHAR

STARTCHAR five
ENCODING 53
SWIDTH 560 0
DWIDTH 7 0
BBX 6 9 1 0
BITMAP
F8
C0
C0
C0
F8
0C
0C
CC
F8
ENDCHAR

STARTCHAR six
ENCODING 54
SWIDTH 560 0
DWIDTH 7 0
BBX 6 9 1 0
BITMAP
3C
60
C0
C0
F8
CC
CC
CC
78
ENDCHAR

STARTCHAR seven
ENCODING 55
SWIDTH 560 0
DWIDTH 7 0
BBX 6 9 1 0
BITMAP
FC
CC
18
18
18
30
30
60
60
ENDCHAR

STARTCHAR eight
ENCODING 56
SWIDTH 560 0
DWIDTH 7 0
BBX 6 9 1 0
BITMAP
78
CC
CC
CC
78
CC
CC
CC
78
ENDCHAR

STARTCHAR nine
ENCODING 57
SWIDTH 560 0
DWIDTH 7 0
BBX 6 9 1 0
BITMAP
78
CC
CC
CC
7C
0C
0C
18
F0
ENDCHAR

STARTCHAR colon
ENCODING 58
SWIDTH 560 0
DWIDTH 7 0
BBX 2 6 3 0
BITMAP
C0
C0
00
00
C0
C0
ENDCHAR

STARTCHAR semicolon
ENCODING 59
SWIDTH 560 0
DWIDTH 7 0
BBX 3 7 2 -1
BITMAP
60
60
00
00
60
60
C0
ENDCHAR

STARTCHAR less
ENCODING 60
SWIDTH 560 0
DWIDTH 7 0
BBX 5 7 1 0
BITMAP
18
30
60
C0
60
30
18
ENDCHAR

STARTCHAR equal
ENCODING 61
SWIDTH 560 0
DWIDTH 7 0
BBX 6 3 1 2
BITMAP
FC
00
FC
ENDCHAR

STARTCHAR greater
ENCODING 62
SWIDTH 560 0
DWIDTH 7 0
BBX 5 7 2 0
BITMAP
C0
60
30
18
30
60
C0
ENDCHAR

STARTCHAR question
ENCODING 63
SWIDTH 560 0
DWIDTH 7 0
BBX 6 8 1 0
BITMAP
78
CC
CC
18
30
00
30
30
ENDCHAR

STARTCHAR at
ENCODING 64
SWIDTH 560 0
DWIDTH 7 0
BBX 6 8 1 0
BITMAP
70
D8
98
A8
A8
9C
C0
70
ENDCHAR

STARTCHAR A
ENCODING 65
SWIDTH 560 0
DWIDTH 7 0
BBX 8 8 0 0
BITMAP
38
18
34
34
3C
66
66
E7
ENDCHAR

STARTCHAR B
ENCODING 66
SWIDTH 560 0
DWIDTH 7 0
BBX 7 8 0 0
BITMAP
FC
66
66
7C
66
66
66
FC
ENDCHAR

STARTCHAR C
ENCODING 67
SWIDTH 560 0
DWIDTH 7 0
BBX 6 8 1 0
BITMAP
78
CC
CC
C0
C0
CC
CC
78
ENDCHAR

STARTCHAR D
ENCODING 68
SWIDTH 560 0
DWIDTH 7 0
BBX 7 8 0 0
BITMAP
FC
66
66
66
66
66
66
FC
ENDCHAR

STARTCHAR E
ENCODING 69
SWIDTH 560 0
DWIDTH 7 0
BBX 6 8 1 0
BITMAP
FC
64
60
78
68
60
64
FC
ENDCHAR

STARTCHAR F
ENCODING 70
SWIDTH 560 0
DWIDTH 7 0
BBX 6 8 1 0
BITMAP
FC
64
60
78
68
60
60
F0
ENDCHAR

STARTCHAR G
ENCODING 71
SWIDTH 560 0
DWIDTH 7 0
BBX 6 8 1 0
BITMAP
78
CC
CC
C0
DC
CC
CC
78
ENDCHAR

STARTCHAR H
ENCODING 72
SWIDTH 560 0
DWIDTH 7 0
BBX 8 8 0 0
BITMAP
F7
66
66
7E
66
66
66
F7
ENDCHAR

STARTCHAR I
ENCODING 73
SWIDTH 560 0
DWIDTH 7 0
BBX 6 8 1 0
BITMAP
FC
30
30
30
30
30
30
FC
ENDCHAR

STARTCHAR J
ENCODING 74
SWIDTH 560 0
DWIDTH 7 0
BBX 6 8 1 0
BITMAP
7C
18
18
18
18
D8
D8
70
ENDCHAR

STARTCHAR K
ENCODING 75
SWIDTH 560 0
DWIDTH 7 0
BBX 8 8 0 0
BITMAP
F6
6C
68
70
78
6C
66
F7
ENDCHAR

STARTCHAR L
ENCODING 76
SWIDTH 560 0
DWIDTH 7 0
BBX 6 8 0 0
BITMAP
F0
60
60
60
60
60
64
FC
ENDCHAR

STARTCHAR M
ENCODING 77
SWIDTH 560 0
DWIDTH 7 0
BBX 8 8 0 0
BITMAP
E3
76
76
7A
6A
6A
62
E3
ENDCHAR

STARTCHAR N
ENCODING 78
SWIDTH 560 0
DWIDTH 7 0
BBX 8 8 0 0
BITMAP
E7
62
72
7A
5E
4E
46
E6
ENDCHAR

STARTCHAR O
ENCODING 79
SWIDTH 560 0
DWIDTH 7 0
BBX 6 8 1 0
BITMAP
78
CC
CC
CC
CC
CC
CC
78
ENDCHAR

STARTCHAR P
ENCODING 80
SWIDTH 560 0
DWIDTH 7 0
BBX 7 8 0 0
BITMAP
FC
66
66
66
7C
60
60
F8
ENDCHAR

STARTCHAR Q
ENCODING 81
SWIDTH 560 0
DWIDTH 7 0
BBX 6 10 1 -2
BITMAP
78
CC
CC
CC
CC
CC
CC
78
34
6C
ENDCHAR

STARTCHAR R
ENCODING 82
SWIDTH 560 0
DWIDTH 7 0
BBX 8 8 0 0
BITMAP
FC
66
66
7C
6C
66
66
F7
ENDCHAR

STARTCHAR S
ENCODING 83
SWIDTH 560 0
DWIDTH 7 0
BBX 6 8 1 0
BITMAP
7C
CC
C0
F0
3C
0C
CC
F8
ENDCHAR

STARTCHAR T
ENCODING 84
SWIDTH 560 0
DWIDTH 7 0
BBX 6 8 1 0
BITMAP
FC
B4
30
30
30
30
30
78
ENDCHAR

STARTCHAR U
ENCODING 85
SWIDTH 560 0
DWIDTH 7 0
BBX 8 8 0 0
BITMAP
F7
66
66
66
66
66
66
3C
ENDCHAR

STARTCHAR V
ENCODING 86
SWIDTH 560 0
DWIDTH 7 0
BBX 8 8 0 0
BITMAP
F7
66
76
34
38
38
18
10
ENDCHAR

STARTCHAR W
ENCODING 87
SWIDTH 560 0
DWIDTH 7 0
BBX 8 8 0 0
BITMAP
F7
62
6A
6A
6A
7E
3C
34
ENDCHAR

STARTCHAR X
ENCODING 88
SWIDTH 560 0
DWIDTH 7 0
BBX 8 8 0 0
BITMAP
EF
66
34
18
38
34
66
EF
ENDCHAR

STARTCHAR Y
ENCODING 89
SWIDTH 560 0
DWIDTH 7 0
BBX 8 8 0 0
BITMAP
E7
66
34
38
18
18
18
3C
ENDCHAR

STARTCHAR Z
ENCODING 90
SWIDTH 560 0
DWIDTH 7 0
BBX 6 8 1 0
BITMAP
FC
CC
9C
38
70
E4
CC
FC
ENDCHAR

STARTCHAR bracketleft
ENCODING 91
SWIDTH 560 0
DWIDTH 7 0
BBX 3 11 2 -2
BITMAP
E0
C0
C0
C0
C0
C0
C0
C0
C0
C0
E0
ENDCHAR

STARTCHAR backslash
ENCODING 92
SWIDTH 560 0
DWIDTH 7 0
BBX 5 10 2 -2
BITMAP
80
C0
C0
60
60
30
30
18
18
08
ENDCHAR

STARTCHAR bracketright
ENCODING 93
SWIDTH 560 0
DWIDTH 7 0
BBX 3 11 2 -2
BITMAP
E0
60
60
60
60
60
60
60
60
60
E0
ENDCHAR

STARTCHAR asciicircum
ENCODING 94
SWIDTH 560 0
DWIDTH 7 0
BBX 6 3 1 5
BITMAP
30
78
CC
ENDCHAR

STARTCHAR underscore
ENCODING 95
SWIDTH 560 0
DWIDTH 7 0
BBX 7 1 0 -2
BITMAP
FE
ENDCHAR

STARTCHAR quoteleft
ENCODING 96
SWIDTH 560 0
DWIDTH 7 0
BBX 2 3 2 5
BITMAP
80
C0
40
ENDCHAR

STARTCHAR a
ENCODING 97
SWIDTH 560 0
DWIDTH 7 0
BBX 7 6 1 0
BITMAP
78
0C
7C
CC
CC
7E
ENDCHAR

STARTCHAR b
ENCODING 98
SWIDTH 560 0
DWIDTH 7 0
BBX 7 9 0 0
BITMAP
E0
60
60
7C
66
66
66
66
FC
ENDCHAR

STARTCHAR c
ENCODING 99
SWIDTH 560 0
DWIDTH 7 0
BBX 6 6 1 0
BITMAP
7C
CC
C0
C0
CC
78
ENDCHAR

STARTCHAR d
ENCODING 100
SWIDTH 560 0
DWIDTH 7 0
BBX 7 9 1 0
BITMAP
1C
0C
0C
7C
CC
CC
CC
CC
7E
ENDCHAR

STARTCHAR e
ENCODING 101
SWIDTH 560 0
DWIDTH 7 0
BBX 6 6 1 0
BITMAP
78
CC
FC
C0
CC
78
ENDCHAR

STARTCHAR f
ENCODING 102
SWIDTH 560 0
DWIDTH 7 0
BBX 7 9 1 0
BITMAP
1E
30
30
FC
30
30
30
30
FC
ENDCHAR

STARTCHAR g
ENCODING 103
SWIDTH 560 0
DWIDTH 7 0
BBX 7 9 1 -3
BITMAP
76
CC
CC
CC
CC
7C
0C
0C
78
ENDCHAR

STARTCHAR h
ENCODING 104
SWIDTH 560 0
DWIDTH 7 0
BBX 7 9 0 0
BITMAP
E0
60
60
6C
76
66
66
66
EE
ENDCHAR

STARTCHAR i
ENCODING 105
SWIDTH 560 0
DWIDTH 7 0
BBX 6 9 1 0
BITMAP
30
00
00
F0
30
30
30
30
FC
ENDCHAR

STARTCHAR j
ENCODING 106
SWIDTH 560 0
DWIDTH 7 0
BBX 4 12 1 -3
BITMAP
30
00
00
F0
30
30
30
30
30
30
30
E0
ENDCHAR

STARTCHAR k
ENCODING 107
SWIDTH 560 0
DWIDTH 7 0
BBX 8 9 0 0
BITMAP
E0
60
60
66
6C
78
78
6C
E7
ENDCHAR

STARTCHAR l
ENCODING 108
SWIDTH 560 0
DWIDTH 7 0
BBX 6 9 1 0
BITMAP
F0
30
30
30
30
30
30
30
FC
ENDCHAR

STARTCHAR m
ENCODING 109
SWIDTH 560 0
DWIDTH 7 0
BBX 7 6 0 0
BITMAP
D4
7E
6A
6A
6A
EA
ENDCHAR

STARTCHAR n
ENCODING 110
SWIDTH 560 0
DWIDTH 7 0
BBX 7 6 0 0
BITMAP
DC
76
66
66
66
F6
ENDCHAR

STARTCHAR o
ENCODING 111
SWIDTH 560 0
DWIDTH 7 0
BBX 6 6 1 0
BITMAP
78
CC
CC
CC
CC
78
ENDCHAR

STARTCHAR p
ENCODING 112
SWIDTH 560 0
DWIDTH 7 0
BBX 7 9 0 -3
BITMAP
DC
66
66
66
66
7C
60
60
F0
ENDCHAR

STARTCHAR q
ENCODING 113
SWIDTH 560 0
DWIDTH 7 0
BBX 7 9 1 -3
BITMAP
76
CC
CC
CC
CC
7C
0C
0C
1E
ENDCHAR

STARTCHAR r
ENCODING 114
SWIDTH 560 0
DWIDTH 7 0
BBX 6 6 1 0
BITMAP
DC
74
60
60
60
F8
ENDCHAR

STARTCHAR s
ENCODING 115
SWIDTH 560 0
DWIDTH 7 0
BBX 6 6 1 0
BITMAP
7C
E4
78
1C
CC
78
ENDCHAR

STARTCHAR t
ENCODING 116
SWIDTH 560 0
DWIDTH 7 0
BBX 6 8 1 0
BITMAP
60
60
FC
60
60
60
64
38
ENDCHAR

STARTCHAR u
ENCODING 117
SWIDTH 560 0
DWIDTH 7 0
BBX 8 6 0 0
BITMAP
EE
66
66
66
66
3B
ENDCHAR

STARTCHAR v
ENCODING 118
SWIDTH 560 0
DWIDTH 7 0
BBX 8 6 0 0
BITMAP
F7
66
34
3C
18
18
ENDCHAR

STARTCHAR w
ENCODING 119
SWIDTH 560 0
DWIDTH 7 0
BBX 8 6 0 0
BITMAP
F7
62
6A
7A
3C
34
ENDCHAR

STARTCHAR x
ENCODING 120
SWIDTH 560 0
DWIDTH 7 0
BBX 6 6 1 0
BITMAP
EC
78
30
78
EC
CC
ENDCHAR

STARTCHAR y
ENCODING 121
SWIDTH 560 0
DWIDTH 7 0
BBX 8 9 0 -3
BITMAP
F7
66
64
3C
38
18
30
30
78
ENDCHAR

STARTCHAR z
ENCODING 122
SWIDTH 560 0
DWIDTH 7 0
BBX 6 6 1 0
BITMAP
FC
D8
30
60
EC
FC
ENDCHAR

STARTCHAR braceleft
ENCODING 123
SWIDTH 560 0
DWIDTH 7 0
BBX 4 11 2 -2
BITMAP
30
60
60
60
60
C0
60
60
60
60
30
ENDCHAR

STARTCHAR bar
ENCODING 124
SWIDTH 560 0
DWIDTH 7 0
BBX 2 10 3 -2
BITMAP
C0
C0
C0
C0
C0
C0
C0
C0
C0
C0
ENDCHAR

STARTCHAR braceright
ENCODING 125
SWIDTH 560 0
DWIDTH 7 0
BBX 4 11 2 -2
BITMAP
C0
60
60
60
60
30
60
60
60
60
C0
ENDCHAR

STARTCHAR asciitilde
ENCODING 126
SWIDTH 560 0
DWIDTH 7 0
BBX 6 3 1 2
BITMAP
64
FC
98
ENDCHAR

STARTCHAR cent
ENCODING 162
SWIDTH 560 0
DWIDTH 7 0
BBX 6 9 1 -1
BITMAP
30
30
78
CC
C0
CC
78
30
30
ENDCHAR

STARTCHAR sterling
ENCODING 163
SWIDTH 560 0
DWIDTH 7 0
BBX 6 8 1 0
BITMAP
3C
6C
60
F8
60
60
CC
F8
ENDCHAR

STARTCHAR currency
ENCODING 164
SWIDTH 560 0
DWIDTH 7 0
BBX 6 6 1 1
BITMAP
CC
78
48
48
78
CC
ENDCHAR

STARTCHAR yen
ENCODING 165
SWIDTH 560 0
DWIDTH 7 0
BBX 8 8 0 0
BITMAP
FF
66
34
7E
18
7E
18
3C
ENDCHAR

STARTCHAR brokenbar
ENCODING 166
SWIDTH 560 0
DWIDTH 7 0
BBX 2 10 3 -2
BITMAP
C0
C0
C0
C0
00
00
C0
C0
C0
C0
ENDCHAR

STARTCHAR section
ENCODING 167
SWIDTH 560 0
DWIDTH 7 0
BBX 6 10 1 -1
BITMAP
3C
64
60
B8
8C
C4
74
18
98
F0
ENDCHAR

STARTCHAR dieresis
ENCODING 168
SWIDTH 560 0
DWIDTH 7 0
BBX 4 2 2 7
BITMAP
90
90
ENDCHAR

STARTCHAR copyright
ENCODING 169
SWIDTH 560 0
DWIDTH 7 0
BBX 7 8 0 0
BITMAP
38
44
9A
A2
A2
9A
44
38
ENDCHAR

STARTCHAR multiply
ENCODING 170
SWIDTH 560 0
DWIDTH 7 0
BBX 6 5 1 1
BITMAP
CC
78
30
78
CC
ENDCHAR

STARTCHAR guillemotleft
ENCODING 171
SWIDTH 560 0
DWIDTH 7 0
BBX 7 5 0 0
BITMAP
36
6C
D8
6C
36
ENDCHAR

STARTCHAR logicalnot
ENCODING 172
SWIDTH 560 0
DWIDTH 7 0
BBX 5 3 1 2
BITMAP
F8
08
08
ENDCHAR

STARTCHAR hyphen
ENCODING 173
SWIDTH 560 0
DWIDTH 7 0
BBX 5 1 1 3
BITMAP
F8
ENDCHAR

STARTCHAR registered
ENCODING 174
SWIDTH 560 0
DWIDTH 7 0
BBX 7 8 0 0
BITMAP
38
44
B2
AA
B2
AA
44
38
ENDCHAR

STARTCHAR macron
ENCODING 175
SWIDTH 560 0
DWIDTH 7 0
BBX 5 1 1 7
BITMAP
F8
ENDCHAR

STARTCHAR degree
ENCODING 176
SWIDTH 560 0
DWIDTH 7 0
BBX 4 4 2 4
BITMAP
60
90
90
60
ENDCHAR

STARTCHAR plusminus
ENCODING 177
SWIDTH 560 0
DWIDTH 7 0
BBX 6 5 1 1
BITMAP
30
FC
30
00
FC
ENDCHAR

STARTCHAR twosuperior
ENCODING 178
SWIDTH 560 0
DWIDTH 7 0
BBX 4 5 2 3
BITMAP
E0
30
60
C0
F0
ENDCHAR

STARTCHAR threesuperior
ENCODING 179
SWIDTH 560 0
DWIDTH 7 0
BBX 4 5 2 3
BITMAP
E0
30
E0
30
E0
ENDCHAR

STARTCHAR acute
ENCODING 180
SWIDTH 560 0
DWIDTH 7 0
BBX 3 2 3 7
BITMAP
60
C0
ENDCHAR

STARTCHAR mu
ENCODING 181
SWIDTH 560 0
DWIDTH 7 0
BBX 8 9 0 -3
BITMAP
EE
66
66
66
66
7B
60
60
60
ENDCHAR

STARTCHAR paragraph
ENCODING 182
SWIDTH 560 0
DWIDTH 7 0
BBX 7 10 0 -1
BITMAP
3E
74
94
94
74
34
14
14
14
3E
ENDCHAR

STARTCHAR periodcentered
ENCODING 183
SWIDTH 560 0
DWIDTH 7 0
BBX 2 2 3 3
BITMAP
C0
C0
ENDCHAR

STARTCHAR cedilla
ENCODING 184
SWIDTH 560 0
DWIDTH 7 0
BBX 5 3 1 -3
BITMAP
30
98
70
ENDCHAR

STARTCHAR onesuperior
ENCODING 185
SWIDTH 560 0
DWIDTH 7 0
BBX 4 5 2 3
BITMAP
60
E0
60
60
F0
ENDCHAR

STARTCHAR divide
ENCODING 186
SWIDTH 560 0
DWIDTH 7 0
BBX 6 5 1 1
BITMAP
30
00
FC
00
30
ENDCHAR

STARTCHAR guillemotright
ENCODING 187
SWIDTH 560 0
DWIDTH 7 0
BBX 7 5 0 0
BITMAP
D8
6C
36
6C
D8
ENDCHAR

STARTCHAR onequarter
ENCODING 188
SWIDTH 560 0
DWIDTH 7 0
BBX 8 10 0 -1
BITMAP
60
E1
62
64
F8
12
26
4A
9F
06
ENDCHAR

STARTCHAR onehalf
ENCODING 189
SWIDTH 560 0
DWIDTH 7 0
BBX 8 10 0 -1
BITMAP
60
E1
62
64
F8
16
2B
46
8C
0F
ENDCHAR

STARTCHAR threequarters
ENCODING 190
SWIDTH 560 0
DWIDTH 7 0
BBX 8 10 0 -1
BITMAP
E0
31
E2
34
E8
12
26
4A
9F
06
ENDCHAR

STARTCHAR dblunderscore
ENCODING 223
SWIDTH 560 0
DWIDTH 7 0
BBX 7 6 0 -3
BITMAP
00
00
FE
00
FE
00
ENDCHAR

STARTCHAR aleph
ENCODING 224
SWIDTH 560 0
DWIDTH 7 0
BBX 6 8 1 0
BITMAP
98
CC
6C
7C
D8
C8
CC
EC
ENDCHAR

STARTCHAR beth
ENCODING 225
SWIDTH 560 0
DWIDTH 7 0
BBX 6 8 1 0
BITMAP
80
F0
18
18
18
18
18
FC
ENDCHAR

STARTCHAR gimmel
ENCODING 226
SWIDTH 560 0
DWIDTH 7 0
BBX 6 8 1 0
BITMAP
40
70
18
18
18
3C
6C
CC
ENDCHAR

STARTCHAR daleth
ENCODING 227
SWIDTH 560 0
DWIDTH 7 0
BBX 6 8 1 0
BITMAP
80
FC
18
18
18
18
18
18
ENDCHAR

STARTCHAR he
ENCODING 228
SWIDTH 560 0
DWIDTH 7 0
BBX 6 8 1 0
BITMAP
80
F8
0C
0C
CC
CC
CC
CC
ENDCHAR

STARTCHAR waw
ENCODING 229
SWIDTH 560 0
DWIDTH 7 0
BBX 3 8 2 0
BITMAP
80
C0
60
60
60
60
60
60
ENDCHAR

STARTCHAR zayin
ENCODING 230
SWIDTH 560 0
DWIDTH 7 0
BBX 5 8 1 0
BITMAP
80
F8
20
30
30
60
60
60
ENDCHAR

STARTCHAR het
ENCODING 231
SWIDTH 560 0
DWIDTH 7 0
BBX 6 8 1 0
BITMAP
80
F8
CC
CC
CC
CC
CC
CC
ENDCHAR

STARTCHAR teth
ENCODING 232
SWIDTH 640 0
DWIDTH 8 0
BBX 7 8 1 0
BITMAP
80
EE
6E
66
66
66
66
3C
ENDCHAR

STARTCHAR yod
ENCODING 233
SWIDTH 560 0
DWIDTH 7 0
BBX 5 5 1 3
BITMAP
80
F0
18
18
30
ENDCHAR

STARTCHAR kaphfinal
ENCODING 234
SWIDTH 560 0
DWIDTH 7 0
BBX 6 10 1 -2
BITMAP
80
FC
0C
0C
0C
0C
0C
0C
0C
0C
ENDCHAR

STARTCHAR kaph
ENCODING 235
SWIDTH 560 0
DWIDTH 7 0
BBX 6 8 1 0
BITMAP
80
F0
18
0C
0C
0C
18
F0
ENDCHAR

STARTCHAR lamed
ENCODING 236
SWIDTH 560 0
DWIDTH 7 0
BBX 7 9 0 0
BITMAP
C0
60
7C
06
06
0E
1C
38
30
ENDCHAR

STARTCHAR memfinal
ENCODING 237
SWIDTH 480 0
DWIDTH 6 0
BBX 6 8 0 0
BITMAP
80
FC
CC
CC
CC
CC
CC
FC
ENDCHAR

STARTCHAR mem
ENCODING 238
SWIDTH 560 0
DWIDTH 7 0
BBX 7 8 0 0
BITMAP
60
6C
76
36
26
66
66
6E
ENDCHAR

STARTCHAR nunfinal
ENCODING 239
SWIDTH 560 0
DWIDTH 7 0
BBX 3 10 3 -2
BITMAP
80
C0
60
60
60
60
60
60
60
60
ENDCHAR

STARTCHAR nun
ENCODING 240
SWIDTH 560 0
DWIDTH 7 0
BBX 5 8 1 0
BITMAP
40
60
30
18
18
18
18
78
ENDCHAR

STARTCHAR samekh
ENCODING 241
SWIDTH 560 0
DWIDTH 7 0
BBX 7 8 0 0
BITMAP
80
FE
26
66
66
66
66
3C
ENDCHAR

STARTCHAR ayin
ENCODING 242
SWIDTH 560 0
DWIDTH 7 0
BBX 7 9 0 -1
BITMAP
48
6C
66
36
36
36
14
78
60
ENDCHAR

STARTCHAR pefinal
ENCODING 243
SWIDTH 560 0
DWIDTH 7 0
BBX 6 10 1 -2
BITMAP
80
F8
CC
CC
CC
6C
0C
0C
0C
0C
ENDCHAR

STARTCHAR pe
ENCODING 244
SWIDTH 560 0
DWIDTH 7 0
BBX 6 8 1 0
BITMAP
80
F8
C8
CC
6C
0C
18
F0
ENDCHAR

STARTCHAR zadikfinal
ENCODING 245
SWIDTH 560 0
DWIDTH 7 0
BBX 7 10 0 -2
BITMAP
EC
66
32
32
1C
18
0C
0C
06
06
ENDCHAR

STARTCHAR zadik
ENCODING 246
SWIDTH 560 0
DWIDTH 7 0
BBX 6 8 1 0
BITMAP
90
D8
6C
2C
38
10
F8
F8
ENDCHAR

STARTCHAR kof
ENCODING 247
SWIDTH 560 0
DWIDTH 7 0
BBX 6 10 1 -2
BITMAP
80
F8
0C
0C
CC
CC
D8
F0
C0
C0
ENDCHAR

STARTCHAR resh
ENCODING 248
SWIDTH 560 0
DWIDTH 7 0
BBX 6 8 1 0
BITMAP
80
F8
18
18
18
18
18
18
ENDCHAR

STARTCHAR shin
ENCODING 249
SWIDTH 560 0
DWIDTH 7 0
BBX 7 8 0 0
BITMAP
A4
D6
56
56
66
46
7C
78
ENDCHAR

STARTCHAR taf
ENCODING 250
SWIDTH 560 0
DWIDTH 7 0
BBX 6 8 1 0
BITMAP
80
F8
6C
6C
6C
6C
6C
EC
ENDCHAR
ENDFONT
